<svg xmlns="http://www.w3.org/2000/svg" width="128" height="128" viewBox="0 0 128 128">
  <rect width="128" height="128" rx="22" fill="#ffffff" />
  <g transform="translate(64, 64) scale(-0.2, 0.2) translate(-240, -290)">
    <path fill="#1a1a1a"
      d="M60.81 476.91h300v-60h-300zm233.79-347.3l13.94 7.39c31.88-43.62 61.34-31.85 61.34-31.85l-21.62 53l35.64 19l2.87 33l64.42 108.75l-43.55 29.37s-26.82-36.39-39.65-43.66c-10.66-6-41.22-10.25-56.17-12l-67.54-76.91l-12 10.56l37.15 42.31c-.13.18-.25.37-.38.57c-35.78 58.17 23 105.69 68.49 131.78H84.14C93 85 294.6 129.61 294.6 129.61" />
  </g>
</svg>